<svg width="90" height="90" viewBox="0 0 90 90" fill="none" xmlns="http://www.w3.org/2000/svg">
<path d="M44.4857 72.6126C43.781 72.6126 43.2753 72.6126 42.7696 72.6126C33.4594 72.6126 24.1492 72.6126 14.8473 72.6126C14.5489 72.6126 14.2587 72.6126 13.9602 72.6126C12.4265 72.5877 12.0037 72.1732 12.0037 70.6477C12.0037 53.7684 11.9954 36.8807 12.0037 20.0013C12.0037 15.9307 14.8971 13.0124 18.9511 13.0124C33.2936 12.9959 47.6361 12.9959 61.9786 13.0124C65.9497 13.0124 68.8265 15.939 68.868 19.9267C68.8846 21.4936 68.8763 23.0605 68.868 24.6274C68.8597 26.1362 68.4866 26.5259 67.0109 26.5342C64.3911 26.5508 61.763 26.5342 59.1433 26.5342C58.8199 26.5342 58.4883 26.5839 58.0904 26.6171V37.3201C58.5132 37.3367 58.9609 37.3698 59.4003 37.3698C63.844 37.3698 68.2876 37.3615 72.7313 37.3698C74.8288 37.3698 76.3708 38.5388 76.86 40.4456C76.9595 40.8518 76.9926 41.2829 76.9926 41.6974C76.9926 52.359 77.0092 63.0205 76.9926 73.682C76.9926 76.2935 75.3097 77.9765 72.6982 77.9765C64.7476 77.9931 56.7888 77.9931 48.8382 77.9765C46.2019 77.9765 44.5603 76.335 44.5023 73.7152C44.5023 73.3836 44.5023 73.0603 44.5023 72.5877L44.4857 72.6126ZM56.5483 15.74H54.9814C43.1841 15.74 31.3868 15.74 19.5895 15.74C19.2081 15.74 18.8267 15.74 18.4454 15.7566C16.7375 15.8726 15.2701 17.0416 14.8639 18.6831C14.7312 19.2054 14.7313 19.7692 14.7313 20.3163C14.7313 36.4247 14.7313 52.5414 14.7313 68.6497C14.7313 69.0145 14.7644 69.3876 14.7893 69.8021H44.4857V68.3844C44.4857 59.5054 44.4857 50.6263 44.4857 41.7472C44.4857 39.0528 46.1521 37.3947 48.8299 37.3781C50.6455 37.3615 52.4694 37.3781 54.285 37.3781C54.6084 37.3781 54.9317 37.3284 55.3296 37.2869C55.3296 36.748 55.3296 36.2838 55.3296 35.8278C55.3048 31.5582 55.2053 27.2886 55.2716 23.019C55.3131 20.6065 54.9649 18.0945 56.5401 15.7483L56.5483 15.74ZM74.2485 57.7146C74.2485 52.6409 74.2485 47.5671 74.2485 42.485C74.2485 42.1037 74.2651 41.7223 74.2236 41.3409C74.1407 40.5782 73.7676 40.2134 73.0132 40.1223C72.7645 40.0891 72.5075 40.1057 72.2505 40.1057C64.5569 40.1057 56.8551 40.1057 49.1615 40.1057C48.9045 40.1057 48.6475 40.0974 48.3988 40.1305C47.7024 40.23 47.3459 40.5699 47.2547 41.2746C47.2133 41.6062 47.2216 41.9462 47.2216 42.2861C47.2216 52.5662 47.2216 62.8381 47.2216 73.1183C47.2216 73.4168 47.205 73.7152 47.2382 74.0054C47.3293 74.7681 47.6941 75.1329 48.4486 75.2241C48.7387 75.2572 49.0372 75.2489 49.3356 75.2489C56.9463 75.2489 64.5652 75.2489 72.1759 75.2489C72.4743 75.2489 72.7728 75.2572 73.063 75.2241C73.7594 75.1246 74.1158 74.7847 74.207 74.08C74.2568 73.7069 74.2402 73.3173 74.2402 72.9359C74.2402 67.8621 74.2402 62.7884 74.2402 57.7063L74.2485 57.7146ZM58.1235 23.7652H66.1155C66.1155 22.3392 66.1487 20.9962 66.1155 19.6614C66.0492 17.5473 64.5404 15.9307 62.5341 15.7649C60.3122 15.5825 58.4469 16.8675 58.165 19.0479C57.966 20.565 58.1235 22.1319 58.1235 23.7652Z" fill="#4804CB"/>
<path d="M35.1092 25.1911C39.2876 25.1911 43.4743 25.1911 47.6527 25.1911C48.0341 25.1911 48.4237 25.1662 48.7885 25.2325C49.4269 25.3486 49.8248 25.8377 49.858 26.4678C49.8911 27.1228 49.5844 27.6202 48.9377 27.8109C48.5812 27.9187 48.1916 27.9352 47.8185 27.9352C39.2876 27.9352 30.7568 27.9352 22.2259 27.9352C21.9274 27.9352 21.6289 27.9435 21.3388 27.8938C20.5595 27.7528 20.0952 27.2057 20.1201 26.5093C20.145 25.8212 20.659 25.2906 21.4217 25.2077C21.7533 25.1745 22.0932 25.1911 22.4331 25.1911C26.653 25.1911 30.8811 25.1911 35.101 25.1911H35.1092Z" fill="#4804CB"/>
<path d="M35.1005 31.9811C39.2872 31.9811 43.4739 31.9811 47.6605 31.9811C48.0419 31.9811 48.4233 31.9645 48.7963 32.0308C49.4596 32.1386 49.8326 32.6029 49.8575 33.2495C49.8907 33.9625 49.501 34.4765 48.7963 34.6009C48.4647 34.6589 48.1248 34.6506 47.7849 34.6506C39.2374 34.6506 30.6983 34.6506 22.1508 34.6506C21.8109 34.6506 21.471 34.6589 21.1394 34.5926C20.5176 34.4682 20.1196 33.9376 20.1113 33.3159C20.1113 32.7024 20.5093 32.1635 21.1311 32.0391C21.5041 31.9645 21.8855 31.9811 22.2669 31.9811C26.5364 31.9811 30.8143 31.9811 35.0839 31.9811H35.1005Z" fill="#4804CB"/>
<path d="M31.0304 45.4945C33.8575 45.4945 36.6845 45.4945 39.5116 45.4945C39.8515 45.4945 40.1914 45.4696 40.523 45.5194C41.2526 45.6106 41.692 46.0748 41.7417 46.7547C41.7914 47.4842 41.3769 48.0314 40.6059 48.1889C40.324 48.2469 40.0173 48.2386 39.7271 48.2386C33.8575 48.2386 27.9961 48.2386 22.1265 48.2386C21.7949 48.2386 21.4467 48.2221 21.1233 48.1392C20.4767 47.9651 20.1119 47.451 20.1285 46.8376C20.1368 46.1992 20.6093 45.6437 21.2891 45.536C21.6207 45.4779 21.9607 45.5028 22.3006 45.5028C25.2105 45.5028 28.1205 45.5028 31.0387 45.5028L31.0304 45.4945Z" fill="#4804CB"/>
<path d="M30.906 41.4405C28.0707 41.4405 25.2353 41.4405 22.4 41.4405C22.143 41.4405 21.8943 41.4488 21.6373 41.4405C20.7087 41.3825 20.1201 40.8519 20.1201 40.0809C20.1201 39.3431 20.6507 38.8291 21.5212 38.7213C21.7285 38.6964 21.944 38.7047 22.1513 38.7047C27.9878 38.7047 33.8325 38.7047 39.669 38.7047C40.0089 38.7047 40.3488 38.7047 40.6722 38.7793C41.3934 38.9534 41.7582 39.4591 41.7333 40.1555C41.7002 40.8353 41.2691 41.3162 40.5478 41.4157C40.2162 41.4654 39.8763 41.4405 39.5364 41.4405C36.6596 41.4405 33.7828 41.4405 30.906 41.4405Z" fill="#4804CB"/>
<path d="M30.9143 61.752C28.079 61.752 25.2436 61.752 22.4083 61.752C22.1513 61.752 21.9026 61.7603 21.6456 61.752C20.7087 61.694 20.1201 61.1717 20.1201 60.4007C20.1201 59.6297 20.6839 59.1074 21.6373 59.0245C21.9274 58.9996 22.2259 59.0245 22.5243 59.0245C28.1536 59.0245 33.7828 59.0245 39.4037 59.0245C39.8265 59.0245 40.2577 59.0162 40.6639 59.0991C41.3852 59.2566 41.7582 59.7706 41.7333 60.467C41.7085 61.1468 41.2691 61.636 40.5561 61.7438C40.2245 61.7935 39.8846 61.7686 39.5447 61.7686C36.6679 61.7686 33.7911 61.7686 30.9143 61.7686V61.752Z" fill="#4804CB"/>
<path d="M31.0387 52.2926C33.9154 52.2926 36.7922 52.2926 39.669 52.2926C40.0504 52.2926 40.44 52.2926 40.8048 52.3672C41.3852 52.4916 41.7251 52.9641 41.7499 53.561C41.7748 54.216 41.4349 54.7466 40.8131 54.8875C40.4898 54.9621 40.1416 54.9621 39.8017 54.9621C33.8823 54.9621 27.9629 54.9621 22.0352 54.9621C21.7368 54.9621 21.4383 54.9621 21.1481 54.9041C20.5263 54.7714 20.1284 54.2491 20.1201 53.6273C20.1201 53.0139 20.5181 52.475 21.1398 52.3506C21.5046 52.276 21.8943 52.2926 22.2756 52.2926C25.1939 52.2926 28.1121 52.2926 31.0304 52.2926H31.0387Z" fill="#4804CB"/>
<path d="M60.7359 56.3632C57.8176 56.3632 54.8994 56.3632 51.9811 56.3632C50.2982 56.3632 49.8836 55.9404 49.8754 54.2574C49.8671 51.1236 49.8671 47.9981 49.8754 44.8643C49.8754 43.1814 50.2982 42.7668 51.9811 42.7585C57.8176 42.7585 63.6541 42.7585 69.4989 42.7585C71.1818 42.7585 71.5964 43.1814 71.6047 44.856C71.6129 47.9898 71.6129 51.1153 71.6047 54.2491C71.6047 55.9321 71.1818 56.3466 69.4989 56.3549C66.5806 56.3632 63.6624 56.3549 60.7442 56.3549L60.7359 56.3632ZM68.7693 53.5693V45.5773C65.6604 45.3452 53.5729 45.4447 52.6858 45.7017V53.5693H68.7693Z" fill="#4804CB"/>
<path d="M52.6022 61.7439C52.138 61.7439 51.6737 61.7771 51.2177 61.7356C50.455 61.661 49.941 61.1304 49.9078 60.4506C49.8747 59.7874 50.3638 59.1324 51.1183 59.0661C52.1214 58.9832 53.1328 58.9832 54.136 59.0661C54.8904 59.1324 55.3713 59.7874 55.3215 60.4589C55.2801 61.147 54.7578 61.661 53.995 61.7273C53.5391 61.7688 53.0748 61.7273 52.6105 61.7273L52.6022 61.7439Z" fill="#4804CB"/>
<path d="M60.6271 61.7355C60.1628 61.7355 59.6985 61.777 59.2425 61.7272C58.5544 61.6443 58.0736 61.1137 58.0321 60.4754C57.9907 59.8536 58.4052 59.182 59.0933 59.1157C60.1711 59.0162 61.2737 59.0162 62.3515 59.1074C63.0396 59.1655 63.4707 59.8204 63.4458 60.4422C63.4127 61.1303 62.8986 61.6443 62.1359 61.7438C62.053 61.7521 61.9701 61.7521 61.8872 61.7521C61.4644 61.7521 61.0499 61.7521 60.6271 61.7521V61.7355Z" fill="#4804CB"/>
<path d="M68.7843 61.7439C68.32 61.7439 67.8558 61.7854 67.3998 61.7356C66.6537 61.6527 66.1396 61.0641 66.1396 60.3926C66.1396 59.7708 66.5956 59.149 67.292 59.091C68.3283 59.0081 69.3895 59.0081 70.4258 59.091C71.1222 59.149 71.5699 59.7791 71.5616 60.4009C71.5616 61.0807 71.0393 61.6279 70.2932 61.7356C70.2103 61.7439 70.1274 61.7439 70.0445 61.7439C69.6216 61.7439 69.2071 61.7439 68.7843 61.7439C68.7843 61.7439 68.7843 61.7439 68.7843 61.7356V61.7439Z" fill="#4804CB"/>
<path d="M52.7099 69.8848C53.1742 69.8848 53.6385 69.8434 54.0944 69.8931C54.7908 69.976 55.2634 70.49 55.3131 71.1367C55.3629 71.7668 54.9483 72.4466 54.2685 72.5046C53.1493 72.5958 52.0135 72.5875 50.8943 72.4881C50.2725 72.43 49.8912 71.7834 49.9077 71.203C49.9243 70.5647 50.3969 69.9926 51.0767 69.9097C51.6156 69.8434 52.171 69.8931 52.7099 69.8931V69.8848Z" fill="#4804CB"/>
<path d="M60.7521 69.8768C61.2163 69.8768 61.6806 69.8437 62.1366 69.8768C62.8993 69.9514 63.4133 70.482 63.4465 71.1701C63.4713 71.8417 62.9905 72.4883 62.2361 72.5464C61.2329 72.621 60.2215 72.6293 59.2183 72.5464C58.4639 72.48 57.9913 71.8168 58.0328 71.1453C58.0825 70.4654 58.5965 69.9431 59.3676 69.8768C59.8235 69.8354 60.2878 69.8768 60.7521 69.8768Z" fill="#4804CB"/>
<path d="M68.885 69.8765C69.3078 69.8765 69.7306 69.8517 70.1452 69.8765C70.9908 69.9346 71.5379 70.4569 71.5628 71.1947C71.5877 71.8662 71.0986 72.5046 70.3358 72.5626C69.3327 72.6373 68.3212 72.6373 67.3181 72.5461C66.5637 72.4797 66.0994 71.8082 66.1491 71.1367C66.2072 70.4569 66.7212 69.9511 67.5005 69.8848C67.9565 69.8434 68.4207 69.8848 68.885 69.8848V69.8765Z" fill="#4804CB"/>
<path d="M52.6103 67.1326C52.146 67.1326 51.6818 67.1657 51.2175 67.1326C50.4382 67.0662 49.9242 66.5274 49.9076 65.8475C49.891 65.1594 50.3968 64.5625 51.1595 64.5211C52.1295 64.463 53.0995 64.463 54.0694 64.5211C54.8405 64.5625 55.3379 65.1677 55.313 65.8558C55.2881 66.5439 54.7741 67.0662 53.9948 67.1326C53.5306 67.174 53.0663 67.1326 52.602 67.1326H52.6103Z" fill="#4804CB"/>
<path d="M60.7348 64.4878C61.1991 64.4878 61.6634 64.4546 62.1276 64.4878C62.9069 64.5541 63.421 65.0764 63.4458 65.7645C63.4624 66.4609 62.965 67.0578 62.2023 67.0993C61.2323 67.1573 60.2623 67.1573 59.2923 67.0993C58.5213 67.0578 58.0239 66.4609 58.0404 65.7645C58.057 65.0764 58.5793 64.5707 59.3503 64.4712C59.4332 64.4629 59.5161 64.4629 59.6073 64.4629C59.9887 64.4629 60.3701 64.4629 60.7514 64.4629C60.7514 64.4629 60.7514 64.4629 60.7514 64.4712L60.7348 64.4878Z" fill="#4804CB"/>
<path d="M68.8843 64.5045C69.39 64.5045 69.904 64.4547 70.4014 64.5128C71.0896 64.5957 71.5621 65.1594 71.5621 65.8061C71.5621 66.4527 71.0978 67.0579 70.4097 67.0994C69.3568 67.1574 68.2957 67.1574 67.2511 67.0911C66.5795 67.0413 66.1236 66.3947 66.1484 65.7563C66.1816 65.1594 66.621 64.6537 67.2345 64.521C67.3174 64.5045 67.4003 64.4962 67.4832 64.4879C67.9475 64.4879 68.4117 64.4879 68.876 64.4879C68.876 64.4879 68.876 64.4962 68.876 64.5045H68.8843Z" fill="#4804CB"/>
</svg>
