<svg width="90" height="90" viewBox="0 0 90 90" fill="none" xmlns="http://www.w3.org/2000/svg">
<path d="M57.9107 70.7058C57.2435 70.0386 56.5594 69.3206 55.833 68.6534C55.6303 68.4676 55.3009 68.324 55.0307 68.324C53.4513 68.2903 51.8635 68.3071 50.1321 68.3071C50.1321 69.0504 50.1574 69.6838 50.1321 70.3173C49.9631 73.6027 48.5105 76.0942 45.4615 77.4794C41.8973 79.101 37.8433 77.8679 35.7065 74.5909C35.546 74.3375 35.4025 74.0757 35.2167 73.7716C32.9701 73.7125 30.8755 73.1889 29.1525 71.6433C27.438 70.1146 26.5512 68.1636 26.3147 65.7818C25.6897 65.7818 25.0985 65.8072 24.5073 65.7818C24.0174 65.7565 23.7134 65.4356 23.6289 64.971C23.5445 64.5487 23.7894 64.2193 24.1526 64.0251C24.2961 63.9491 24.482 63.9237 24.6509 63.9237C26.2894 63.9237 27.7758 63.4846 29.1272 62.5217C29.7691 62.0572 30.242 62.1417 30.6052 62.6146C30.9768 63.096 30.8501 63.6535 30.1829 64.1433C29.6001 64.5656 28.9583 64.9204 28.2826 65.3426C28.4346 67.8933 29.4566 69.895 31.8045 71.069C34.0934 72.2091 36.2977 71.9389 38.3839 70.4862C38.5274 70.3848 38.6457 70.2581 38.7808 70.1568C39.5156 69.6162 39.9548 69.5994 40.3686 70.0723C40.7994 70.5622 40.7065 71.1196 39.9632 71.7024C39.3213 72.2007 38.595 72.5892 37.9024 73.0115C37.7251 73.1213 37.5224 73.1889 37.2268 73.3324C38.4599 75.2919 40.1575 76.2294 42.3956 76.1871C44.7689 76.1449 46.4666 75.0301 47.5814 72.8341C47.0662 72.8088 46.6439 72.8088 46.2216 72.7581C45.7149 72.6906 45.3095 72.2514 45.3179 71.8206C45.3179 71.3814 45.7233 70.9592 46.247 70.9169C46.8044 70.8747 47.3618 70.9085 47.8939 70.9085C48.1895 69.9794 48.2486 65.4609 47.9953 63.7464C46.948 63.7464 45.8753 63.6704 44.8112 63.7633C43.4598 63.89 42.4463 64.9119 42.1845 66.2463C42.1507 66.4153 42.1761 66.5926 42.1338 66.7616C41.9734 67.4203 41.6271 67.6906 41.0527 67.6315C40.5291 67.5724 40.1997 67.1416 40.1913 66.5251C40.1828 64.2447 42.2183 62.0403 44.5747 61.8714C45.6811 61.7954 46.8044 61.8545 47.8855 61.8545C48.198 60.8241 48.2993 52.3276 48.0713 48.6198C47.6996 48.3158 47.252 48.4593 46.8382 48.4593C42.3534 48.4509 37.8771 48.4593 33.3923 48.4593C33.0461 48.4593 32.6998 48.4847 32.3619 48.4425C31.7876 48.3749 31.5005 48.037 31.5005 47.505C31.5005 46.9644 31.7707 46.6604 32.3704 46.5928C32.7082 46.5506 33.0545 46.5675 33.4008 46.5675C37.8433 46.5675 42.2774 46.5675 46.7199 46.5675H48.0459V30.2332C47.6659 30.2163 47.2942 30.174 46.9142 30.174C44.6338 30.1656 42.345 30.1656 40.0646 30.1487C38.443 30.1318 37.1676 29.4055 36.1964 28.1386C35.5545 27.3024 35.1744 26.3481 35.166 25.2754C35.166 24.6251 35.4616 24.2197 35.9768 24.1437C36.5173 24.0592 36.8467 24.3379 37.0325 25.0136C37.7504 27.6994 38.4937 28.2653 41.2892 28.2653C43.1389 28.2653 44.997 28.2653 46.8466 28.2653H48.0459V21.914C47.801 21.8802 47.5138 21.8295 47.2351 21.8126C46.9311 21.7957 46.627 21.8295 46.3314 21.7957C45.7233 21.7366 45.301 21.3228 45.3095 20.8414C45.3095 20.3937 45.6557 19.9968 46.2132 19.9123C46.7959 19.8194 47.3956 19.8025 47.9699 19.7603C48.2317 17.4799 46.6101 15.115 44.2622 14.3042C41.6946 13.4259 38.6879 14.2789 37.2521 16.8211C37.497 16.9647 37.7251 17.1252 37.9785 17.2434C40.943 18.6961 42.5477 21.0694 42.7926 24.3548C42.8517 25.1403 42.497 25.6386 41.8973 25.6639C41.3484 25.6893 40.9176 25.2839 40.8754 24.566C40.7825 22.9528 40.2504 21.5255 39.0849 20.3937C37.1508 18.5103 34.8957 17.9191 32.3282 18.9072C29.8197 19.8701 28.5866 21.8211 28.2826 24.414C28.2488 24.7011 28.3502 25.0136 28.3671 25.3092C28.4093 26.3649 27.8856 26.821 26.8468 26.6014C25.5546 26.3312 24.2877 26.3143 23.0293 26.7619C19.8621 27.8936 18.1222 31.4662 19.3131 34.5321C19.9212 34.397 20.5377 34.2196 21.1627 34.1267C21.7962 34.0254 22.4465 33.9662 23.0884 33.9578C23.7472 33.9578 24.1357 34.3125 24.161 34.8362C24.1863 35.3514 23.8316 35.7145 23.1897 35.8243C22.2607 35.9848 21.2894 36.0439 20.4026 36.3311C16.8047 37.5219 14.6087 40.0557 14.0513 43.7634C13.5192 47.3192 14.8283 50.2668 17.6915 52.488C17.8857 52.6401 18.1222 52.7498 18.3334 52.8765C18.8992 52.3191 19.3975 51.787 19.955 51.3225C20.3773 50.9678 20.8671 50.6806 21.357 50.4103C21.8215 50.157 22.1931 50.3934 22.4718 50.7651C22.7759 51.1705 22.6914 51.5928 22.362 51.9306C22.1593 52.1417 21.8806 52.2938 21.6357 52.4711C18.6712 54.5657 18.004 58.2143 20.0479 61.2295C20.1914 61.4407 20.3604 61.6433 20.4786 61.8714C20.7573 62.3866 20.6982 62.8089 20.3012 63.1467C19.9043 63.4846 19.4651 63.493 19.0344 63.0623C18.6712 62.6991 18.3502 62.2852 18.0884 61.846C16.9229 59.9457 16.754 57.8849 17.1425 55.7397C17.2016 55.4103 17.2945 55.0809 17.3621 54.7684C9.80303 49.684 10.6476 39.7179 17.3199 35.5034C16.6442 32.6656 16.754 29.8953 18.7303 27.4967C20.656 25.1656 23.1982 24.245 26.2471 24.4308C26.5174 22.1505 27.3282 20.1741 29.0427 18.6285C30.7657 17.066 32.818 16.4833 35.09 16.4833C36.9734 13.1809 39.7436 11.5678 43.5527 12.0999C45.453 12.3701 46.9986 13.3583 48.2571 14.8194C49.4902 16.2552 49.9294 17.9866 50.1405 19.8701H52.1844C53.502 17.86 54.7604 17.235 56.4411 17.7333C57.8516 18.1556 58.7553 19.4309 58.73 20.968C58.7046 22.4545 57.7164 23.696 56.2722 24.0677C54.7013 24.4731 53.3668 23.7721 52.2351 21.9055H50.1236C50.0729 23.9832 50.1152 26.0271 50.0983 28.1555C50.4192 28.1977 50.7064 28.2653 50.9851 28.2653C53.0966 28.2737 55.208 28.2653 57.3195 28.2737C57.8431 28.2737 58.333 28.2484 58.7468 27.8345C59.8364 26.7366 60.9597 25.6639 62.0238 24.6251C61.2046 22.4798 61.5002 21.044 62.9107 20.0136C64.0424 19.186 65.7569 19.2366 66.8887 20.1319C68.0035 21.0103 68.4089 22.6741 67.8262 23.9917C67.142 25.5457 65.7569 26.1538 63.3921 25.8075C62.4799 26.7703 61.4495 27.8092 60.4698 28.8987C59.6337 29.8278 58.6455 30.2332 57.3786 30.1909C55.4445 30.1234 53.502 30.174 51.5594 30.174C51.1371 30.174 50.7064 30.174 50.2165 30.174C49.98 31.5254 50.149 32.7923 50.0983 34.1436C50.4952 34.1774 50.8246 34.2281 51.154 34.2281C54.0847 34.2281 57.0154 34.2618 59.9462 34.2196C61.1539 34.2027 62.1252 34.5659 62.9191 35.4696C63.3752 35.9848 63.9157 36.424 64.3634 36.9476C64.8701 37.5388 64.6843 38.2652 64.0255 38.5439C63.5948 38.7213 63.2569 38.527 62.9613 38.2652C62.4208 37.7753 61.8972 37.2601 61.3904 36.728C61.0695 36.3986 60.7147 36.2213 60.2502 36.2297C56.931 36.2297 53.6118 36.2297 50.3179 36.2297C50.0392 37.1334 49.98 39.9628 50.2081 41.6858H52.4124C52.9192 40.7736 53.5611 39.9375 54.6844 39.5996C55.3347 39.4054 55.9428 39.4138 56.5847 39.625C58.0374 40.1064 58.958 41.3479 58.9242 42.826C58.8904 44.2786 57.9023 45.5117 56.4327 45.9087C54.8195 46.3479 53.6287 45.7482 52.3871 43.8141H50.2756C50.0392 44.7601 49.98 48.6451 50.1743 50.6975H60.0644C61.2299 48.8141 62.5644 48.1131 64.1438 48.5776C65.7654 49.0506 66.5762 50.2752 66.6184 51.8208C66.6522 53.1721 65.5289 54.5573 64.262 54.8951C62.5306 55.3512 61.2891 54.7346 60.0475 52.7076C56.8296 52.6569 53.5357 52.6907 50.1658 52.6823V59.1687H58.3837C59.6759 57.1755 60.9512 56.542 62.6404 57.0403C64.0424 57.4542 64.9546 58.7464 64.9208 60.2751C64.8954 61.7447 63.8988 62.9947 62.4461 63.3747C60.8837 63.7801 59.5492 63.0791 58.409 61.2126H50.1658V66.2295C50.4614 66.2548 50.7908 66.3139 51.1118 66.3139C52.3195 66.3224 53.5273 66.3393 54.7351 66.3139C55.7486 66.2886 56.5847 66.6349 57.2773 67.3612C57.936 68.0453 58.6033 68.7125 59.2958 69.422C60.3853 69.1011 61.4242 69.042 62.4124 69.6501C63.0627 70.047 63.5357 70.5875 63.8144 71.2885C64.3549 72.6483 63.9073 74.177 62.7164 75.0976C61.6184 75.9422 59.9799 75.976 58.8566 75.1652C57.4884 74.1855 57.159 72.7919 57.86 70.7227L57.9107 70.7058ZM61.686 58.8224C61.0272 58.8224 60.36 59.4812 60.3347 60.14C60.3093 60.8157 60.9259 61.4576 61.6269 61.4913C62.3617 61.5251 63.0796 60.841 63.0458 60.1315C63.012 59.4728 62.3363 58.8224 61.686 58.8224ZM55.5121 22.2011C56.2046 22.2011 56.855 21.5677 56.8634 20.9005C56.8719 20.2163 56.1202 19.49 55.4361 19.5322C54.7688 19.5745 54.1438 20.2586 54.1607 20.9174C54.1776 21.6015 54.8195 22.218 55.5121 22.2096V22.2011ZM56.9479 42.7246C56.9479 41.9476 56.4411 41.4408 55.6726 41.4408C54.9293 41.4408 54.355 41.9729 54.3297 42.6908C54.3043 43.4509 54.9209 44.0675 55.7063 44.0506C56.4496 44.0337 56.9563 43.4932 56.9563 42.7246H56.9479ZM60.8921 71.1788C60.1151 71.1281 59.5408 71.5926 59.4732 72.3274C59.4056 73.1213 59.9546 73.7632 60.7316 73.7885C61.458 73.8139 62.0407 73.2733 62.083 72.547C62.1336 71.7953 61.6353 71.2294 60.8837 71.1788H60.8921ZM64.811 21.3312C64.11 21.3481 63.5525 21.9562 63.561 22.6825C63.5694 23.4004 64.1522 24.0001 64.8532 24.0001C65.6133 24.0001 66.2468 23.3329 66.1961 22.5896C66.1539 21.9224 65.4782 21.3143 64.811 21.3312ZM62.0407 51.6941C62.0238 52.4289 62.5559 53.0201 63.2654 53.0708C63.9833 53.1215 64.6674 52.4627 64.6674 51.7195C64.6674 50.9762 64.1269 50.461 63.3667 50.4526C62.5897 50.4526 62.0576 50.9424 62.0407 51.6941Z" fill="#4804CB"/>
<path d="M68.5959 43.8394C68.0723 43.2988 67.4895 42.7245 66.9405 42.1333C66.6449 41.8124 66.3916 41.4576 66.6449 40.9847C66.9659 40.385 67.6247 40.1992 68.1483 40.6891C68.7733 41.2803 69.2969 41.9728 69.8037 42.564C71.0452 42.2178 72.0503 42.0066 73.0469 42.5049C73.6803 42.8259 74.1871 43.2566 74.5249 43.89C75.209 45.1738 75.0232 46.6772 74.0435 47.7076C73.0385 48.7633 71.4168 49.042 70.1246 48.3748C68.6128 47.5978 68.1567 46.2887 68.5959 43.8309V43.8394ZM70.3273 45.4441C70.3189 46.1451 70.8932 46.7701 71.5858 46.8039C72.3121 46.8376 72.9709 46.1704 72.954 45.4187C72.9371 44.7177 72.3121 44.1096 71.628 44.1181C70.9354 44.1181 70.3358 44.7346 70.3273 45.4356V45.4441Z" fill="#4804CB"/>
<path d="M30.783 34.9123C30.7745 37.5728 28.9502 40.512 25.1411 40.8667C24.4823 40.9258 23.9587 40.5542 23.8827 40.0221C23.8067 39.5154 24.2374 39.0508 24.9046 38.9157C25.0736 38.8819 25.2509 38.8988 25.4198 38.8735C27.4046 38.5525 28.7475 37.0238 28.7813 35.0559C28.8151 32.9951 27.5566 31.4664 25.4874 31.0695C25.1496 31.0019 24.7526 31.0104 24.4992 30.8246C24.2205 30.6219 23.9249 30.2587 23.8996 29.9377C23.8658 29.4901 24.2036 29.1354 24.6935 29.0678C25.0313 29.0256 25.3861 29.034 25.7239 29.0847C28.5617 29.4901 30.783 32.0492 30.7914 34.9123H30.783Z" fill="#4804CB"/>
<path d="M31.6024 55.672C30.3525 55.672 29.1025 55.6551 27.8525 55.672C26.1126 55.6973 25.04 56.5841 24.6684 58.2817C24.6093 58.5351 24.6262 58.8054 24.5332 59.0419C24.3728 59.4473 24.0349 59.6077 23.5958 59.574C23.1566 59.5402 22.8272 59.3037 22.785 58.8814C22.7427 58.4169 22.7596 57.927 22.8694 57.4794C23.4184 55.3004 25.0991 53.8392 27.54 53.7125C30.2511 53.5774 32.9622 53.6703 35.6818 53.6703C35.8507 53.6703 36.0196 53.7125 36.1885 53.7632C36.6531 53.9068 36.9318 54.2446 36.9064 54.7176C36.8811 55.1737 36.594 55.5368 36.121 55.6213C35.7831 55.6804 35.4369 55.6635 35.0906 55.6635C33.9251 55.6635 32.768 55.6635 31.6024 55.6635V55.672Z" fill="#4804CB"/>
<path d="M73.6462 53.831C75.4789 53.831 76.9401 55.2245 76.9992 57.032C77.0499 58.8478 75.5043 60.3681 73.6377 60.3512C71.8303 60.3343 70.3607 58.8647 70.3692 57.0742C70.3692 55.2837 71.8472 53.831 73.6546 53.8225L73.6462 53.831ZM72.3709 57.0657C72.3624 57.7752 72.9367 58.4002 73.6293 58.4339C74.305 58.4677 74.9553 57.8596 74.9975 57.1671C75.0397 56.4323 74.3979 55.7482 73.6546 55.7397C72.9705 55.7313 72.3793 56.3394 72.3709 57.0657Z" fill="#4804CB"/>
<path d="M70.5041 29.0084C72.3284 29.0338 73.7557 30.5118 73.7219 32.3361C73.6882 34.1351 72.1932 35.554 70.3605 35.5286C68.5024 35.5033 67.1426 34.0759 67.1764 32.1925C67.2102 30.326 68.6206 28.9746 70.5041 29.0084ZM71.7203 32.2179C71.6949 31.4831 71.0953 30.8919 70.4027 30.9256C69.7102 30.951 69.0936 31.576 69.0852 32.2516C69.0767 32.9864 69.7777 33.6621 70.4956 33.6114C71.1966 33.5608 71.7541 32.9273 71.7287 32.2179H71.7203Z" fill="#4804CB"/>
<path d="M72.715 67.2516C72.6981 69.1013 71.2707 70.4779 69.4042 70.4695C67.5461 70.4526 66.161 69.0337 66.1779 67.1756C66.1948 65.3429 67.6475 63.924 69.4887 63.9493C71.3214 63.9662 72.7319 65.4189 72.715 67.2601V67.2516ZM70.8062 67.2516C70.84 66.5844 70.2235 65.9341 69.5225 65.8834C68.8299 65.8412 68.1627 66.407 68.0951 67.0911C68.0275 67.7837 68.7285 68.5354 69.438 68.5438C70.0883 68.5438 70.7724 67.902 70.8062 67.2432V67.2516Z" fill="#4804CB"/>
<path d="M36.7973 62.8169C36.8818 65.6716 34.4156 67.5889 32.3886 67.6142C31.5102 67.6227 31.0879 67.3777 31.0541 66.7781C31.0203 66.2291 31.3497 65.9166 32.1183 65.7392C32.4561 65.6632 32.794 65.6125 33.1149 65.4858C34.2382 65.0298 35.0068 63.7798 34.897 62.6142C34.7787 61.3896 33.8666 60.3508 32.6673 60.0805C32.3379 60.0045 31.9916 59.9707 31.6622 59.8693C31.2484 59.7342 31.0372 59.4217 31.0541 58.991C31.071 58.4927 31.3751 58.1886 31.8227 58.0788C32.1014 58.0113 32.4223 58.0366 32.7179 58.0788C35.0828 58.442 36.7889 60.4268 36.7973 62.8254V62.8169Z" fill="#4804CB"/>
<path d="M42.1685 35.2249C44.3391 35.3431 46.0029 36.9985 46.155 39.1353C46.3154 41.5086 44.7867 43.0288 43.0891 43.5103C42.7597 43.6032 42.4134 43.6876 42.0756 43.7045C41.5182 43.7298 41.0199 43.3076 40.9607 42.8261C40.9101 42.3954 41.2395 41.9478 41.7547 41.7873C41.9574 41.7282 42.1854 41.7366 42.3881 41.6859C43.4776 41.4072 44.204 40.5289 44.2293 39.4816C44.2546 38.4089 43.5959 37.5559 42.481 37.2181C42.2361 37.1421 41.9743 37.1336 41.7293 37.0576C41.2057 36.9056 40.8847 36.4579 40.9523 36.0272C41.0283 35.5711 41.4168 35.2586 41.9742 35.2164C42.1009 35.208 42.2361 35.2164 42.1685 35.2164V35.2249Z" fill="#4804CB"/>
<path d="M31.2127 42.7752C31.2127 42.7752 31.0015 42.7752 30.8326 42.7499C30.4103 42.657 29.9627 42.2009 30.0725 41.8546C30.1738 41.5252 30.4272 41.1536 30.7144 40.9932C31.0775 40.7989 31.5421 40.8158 31.9644 40.7313C34.1941 40.2837 35.6721 38.6959 35.9846 36.4408C36.0353 36.103 36.0944 35.7567 36.2126 35.4442C36.3731 35.0304 36.7616 34.8446 37.1501 34.9628C37.4373 35.0473 37.716 35.3006 37.9187 35.5456C38.0369 35.6807 38.0201 35.9594 38.0032 36.1706C37.8089 40.0472 34.4981 42.7499 31.2042 42.7837L31.2127 42.7752Z" fill="#4804CB"/>
<path d="M25.1243 48.5523C24.2797 48.4425 23.4014 48.434 22.5905 48.1976C20.4791 47.5894 19.3389 46.0776 18.9419 43.9577C18.8997 43.7466 18.8913 43.527 18.9166 43.3158C18.9757 42.8513 19.1953 42.505 19.7021 42.429C20.2257 42.353 20.5889 42.5641 20.7747 43.1216C20.8676 43.4003 20.8845 43.7128 20.9521 44C21.2477 45.2415 22.0078 46.0523 23.2409 46.3563C23.8152 46.4999 24.4317 46.5084 25.0314 46.5422C25.6733 46.5759 26.3236 46.5422 26.9655 46.5844C27.4723 46.6182 27.7172 46.956 27.7425 47.4459C27.7763 47.9864 27.4976 48.3665 26.9402 48.4171C26.3405 48.4678 25.7409 48.4256 25.1328 48.4256C25.1328 48.4594 25.1328 48.5016 25.1243 48.5354V48.5523Z" fill="#4804CB"/>
<path d="M34.8627 20.2163C35.0655 20.2332 35.3442 20.1825 35.4793 20.2923C35.7496 20.5288 36.1127 20.8498 36.1212 21.1454C36.1212 21.441 35.7918 21.7957 35.5131 22.0153C35.3442 22.1504 35.0148 22.0828 34.7698 22.1335C33.7732 22.3447 33.03 22.8345 32.802 23.9071C32.7682 24.0761 32.7091 24.2365 32.6499 24.397C32.4388 24.9291 32.0334 25.2078 31.5942 25.1318C31.1043 25.0389 30.7158 24.5575 30.8087 23.9832C30.8932 23.4426 31.0452 22.8768 31.307 22.4038C32.0672 21.0271 33.2665 20.3008 34.8627 20.2163Z" fill="#4804CB"/>
<path d="M41.8122 55.6636C41.2126 55.6636 40.6129 55.6974 40.0132 55.6636C39.3038 55.6129 38.873 55.216 38.873 54.6754C38.873 54.1433 39.3038 53.7126 40.0132 53.6873C41.2126 53.645 42.4119 53.6366 43.6027 53.6873C44.4304 53.721 44.8189 54.1264 44.7767 54.743C44.7345 55.3089 44.3544 55.6298 43.6027 55.6636C43.0031 55.6889 42.4034 55.6636 41.8038 55.6636H41.8122Z" fill="#4804CB"/>
</svg>
