<svg width="90" height="90" viewBox="0 0 90 90" fill="none" xmlns="http://www.w3.org/2000/svg">
<path d="M54.5269 71.2348C53.921 74.0799 52.6126 76.4069 50.2417 78.0402C48.4152 79.3047 46.3867 79.893 44.1651 79.8315C39.5198 79.7086 36.1303 76.7406 34.4882 71.2348C34.0579 71.2348 33.5838 71.2348 33.1008 71.2348C28.8419 71.2348 24.5918 71.2523 20.3329 71.2348C17.9181 71.226 16.1707 69.7332 15.8721 67.4413C15.6701 65.9046 16.2848 64.6665 17.3825 63.6039C18.4362 62.5765 19.5163 61.5403 20.4032 60.3812C22.9761 57.0092 24.3284 53.1719 24.3898 48.913C24.425 45.8659 24.3723 42.8189 24.4162 39.7718C24.5216 33.6689 26.8135 28.5494 31.406 24.5013C33.2062 22.9119 35.2434 21.7264 37.4914 20.8834C37.9041 20.7254 38.308 20.5498 38.8173 20.3478C38.8173 19.0306 38.7646 17.7398 38.8261 16.449C39.0017 12.6291 42.7689 10.0826 46.3867 11.312C48.5557 12.0496 50.1012 14.0429 50.2065 16.3524C50.268 17.6432 50.2153 18.9428 50.2153 20.3039C50.5841 20.462 50.8915 20.6112 51.2164 20.7342C58.3555 23.5354 62.7724 28.6548 64.274 36.1978C64.5374 37.5062 64.5901 38.8673 64.6165 40.2021C64.6691 42.8013 64.6428 45.4005 64.6252 47.9997C64.5813 54.1817 66.882 59.3187 71.4746 63.4458C73.2396 65.0265 73.705 67.0286 72.7303 68.8726C71.8785 70.4884 70.4823 71.2348 68.6646 71.2348C64.4496 71.2348 60.2434 71.2348 56.0285 71.2348C55.5455 71.2348 55.0537 71.2348 54.5269 71.2348ZM44.5251 68.3282C52.2701 68.3282 60.0239 68.3282 67.7689 68.3282C68.1728 68.3282 68.5768 68.3282 68.9807 68.3106C69.5866 68.2931 69.9905 67.9682 70.2188 67.4325C70.4559 66.8793 70.2979 66.37 69.9203 65.9397C69.6832 65.6763 69.3934 65.4567 69.1388 65.2109C64.4057 60.75 61.9206 55.2794 61.7538 48.7813C61.6835 46.0503 61.7626 43.3194 61.7274 40.5884C61.7099 39.2976 61.6748 37.9804 61.4552 36.7159C60.0239 28.2245 52.0242 21.182 41.9873 22.6924C33.2852 24.0008 27.3579 31.1399 27.3228 39.9211C27.314 42.8364 27.3667 45.743 27.3052 48.6583C27.1647 55.2618 24.6533 60.8115 19.8236 65.3162C19.5602 65.5621 19.2704 65.7817 19.0509 66.0626C18.366 66.9759 18.8138 68.1175 19.9378 68.2931C20.3769 68.3633 20.8335 68.337 21.2813 68.337C29.0263 68.337 36.7801 68.337 44.5251 68.337V68.3282ZM37.6055 71.2875C38.2905 74.7648 41.2761 77.0128 44.8939 76.925C48.3976 76.8459 51.3657 73.6672 51.3744 71.2875H37.6055ZM47.4141 19.6629C47.4141 18.7935 47.4141 17.9505 47.4141 17.1163C47.4141 16.809 47.379 16.4929 47.3175 16.1855C47.0102 14.7893 45.9564 13.92 44.569 13.9024C43.1728 13.8849 41.9873 14.7191 41.7942 16.1153C41.6273 17.2832 41.759 18.4862 41.759 19.6629H47.4141Z" fill="#4804CB"/>
<path d="M13 37.8309C13.4917 29.4888 16.6354 22.0775 22.5627 15.8516C22.7822 15.6233 22.993 15.3862 23.2564 15.2194C23.8448 14.8154 24.6351 14.9032 25.1005 15.3862C25.5307 15.834 25.6186 16.5453 25.2585 17.1249C25.0917 17.3883 24.8634 17.6078 24.6526 17.8362C19.0766 23.702 16.1876 30.7006 15.8539 38.7705C15.8363 39.1744 15.8539 39.5872 15.7748 39.9735C15.6343 40.6936 15.0109 41.1502 14.326 41.1063C13.6849 41.0624 13.1756 40.6058 13.0439 39.9384C13.0263 39.8506 13.0176 39.7628 13.0176 39.675C13.0176 39.1393 13.0176 38.6037 13.0176 37.8397L13 37.8309Z" fill="#4804CB"/>
<path d="M76.0399 38.1125C76.0399 38.6481 76.075 39.1925 76.0399 39.7282C75.9697 40.5712 75.434 41.0893 74.6788 41.1156C73.9324 41.1332 73.3529 40.6327 73.2563 39.7984C73.1597 38.9115 73.1421 38.0071 73.0719 37.1202C72.4923 29.8406 69.656 23.562 64.7385 18.1967C64.44 17.8631 64.0975 17.5645 63.8429 17.1957C63.4214 16.581 63.5092 15.8346 64.0009 15.3604C64.4839 14.895 65.2654 14.8335 65.845 15.2638C66.1699 15.5009 66.4421 15.8083 66.7143 16.098C71.7547 21.4985 74.8193 27.8385 75.7677 35.1796C75.8906 36.1543 75.9785 37.1378 76.0838 38.1125C76.075 38.1125 76.0575 38.1125 76.0487 38.1125H76.0399Z" fill="#4804CB"/>
</svg>
