<svg width="90" height="90" viewBox="0 0 90 90" fill="none" xmlns="http://www.w3.org/2000/svg">
<path d="M24.8217 17.3389C24.888 15.9297 24.7305 14.6034 25.8744 13.6916C26.5375 13.1611 27.2836 12.9705 28.1208 13.0036C30.135 13.0782 30.9059 14.131 31.1131 17.1316C31.9752 17.3886 57.6466 17.4715 59.4371 17.1979C59.4371 16.7337 59.4122 16.2281 59.4371 15.7391C59.5448 14.1061 60.7716 13.0202 62.4958 13.0119C64.2448 13.0036 65.4633 14.0398 65.5959 15.6893C65.6374 16.1867 65.5959 16.6923 65.5959 17.3389C66.8061 17.3389 67.892 17.314 68.9779 17.3471C69.6493 17.372 70.3373 17.3969 70.9838 17.5627C72.9898 18.0849 74.3492 19.8256 74.4487 21.9062C74.4653 22.246 74.457 22.5859 74.457 22.9174C74.457 39.4128 74.457 55.8999 74.457 72.3952C74.457 72.9838 74.4818 73.5889 74.3741 74.1691C74.0011 76.2414 72.1609 77.8329 70.0306 77.9821C69.6493 78.007 69.268 77.9987 68.8867 77.9987C53.1125 77.9987 37.3383 77.9987 21.5641 77.9987C20.8512 77.9987 20.1135 77.9655 19.4338 77.7832C17.4029 77.2278 16.0933 75.5202 16.0104 73.4148C15.9938 73.0335 16.0021 72.6522 16.0021 72.2709C16.0021 55.8667 16.0021 39.4542 16.0021 23.0501C16.0021 22.3372 15.9938 21.5995 16.1596 20.9115C16.6818 18.8309 18.5054 17.43 20.7186 17.3637C22.0283 17.3223 23.3379 17.3637 24.7885 17.3637L24.8217 17.3389ZM17.9003 32.8478C17.9003 33.4198 17.9003 33.8342 17.9003 34.2487C17.9003 45.6711 17.9003 57.0935 17.9003 68.5159C17.9003 68.9387 17.892 69.3697 17.9583 69.7841C18.1572 70.9695 18.8121 71.815 19.9891 72.13C20.4699 72.2626 20.9921 72.2543 21.4978 72.2543C25.3854 72.2626 29.2812 72.2543 33.1688 72.2543C41.2093 72.2543 49.2415 72.2543 57.2819 72.2543C59.2464 72.2543 59.9676 71.5166 59.9759 69.5769C59.9759 67.7119 60.0256 65.8551 59.9676 63.99C59.893 61.6028 61.8326 59.5885 64.2696 59.6714C66.1264 59.7377 67.9915 59.688 69.8565 59.6797C71.8376 59.6714 72.6085 58.9005 72.6085 56.8946C72.6085 49.2354 72.6085 41.5845 72.6085 33.9254C72.6085 33.6021 72.5505 33.2788 72.5173 32.8478C71.9454 32.8478 71.448 32.8478 70.9507 32.8478C58.3429 32.8478 45.7435 32.8478 33.1357 32.8478C32.7544 32.8478 32.3731 32.8478 31.9918 32.8312C31.4447 32.7898 31.1463 32.4499 31.0966 31.936C31.0468 31.505 31.4447 31.0739 31.9586 31.0159C32.3731 30.9662 32.8041 30.991 33.2269 30.991C45.8346 30.991 58.4341 30.991 71.0419 30.991C71.5309 30.991 72.0283 30.9579 72.4593 30.9496C72.5422 30.7341 72.5919 30.6595 72.5919 30.5849C72.6002 27.7914 72.65 24.998 72.5919 22.2129C72.5588 20.2483 71.0584 19.2785 69.5747 19.3034C67.0797 19.3531 64.5846 19.3117 62.0896 19.32C61.8575 19.32 61.6254 19.4028 61.3187 19.4609C61.3187 20.0411 61.3436 20.5385 61.3187 21.0441C61.2607 22.0885 61.327 23.0003 62.6781 23.191C63.134 23.2573 63.3413 23.7049 63.2501 24.1857C63.1589 24.6499 62.8439 24.9317 62.3714 24.9566C62.0813 24.9648 61.7746 24.9317 61.5011 24.8488C60.3157 24.4924 59.5283 23.4977 59.4702 22.2211C59.4288 21.3011 59.4702 20.381 59.4702 19.4857C57.9533 19.1956 27.7229 19.2536 26.7696 19.5438C26.7696 20.3229 26.7696 21.1187 26.7696 21.9144C26.7696 22.4864 27.0432 22.876 27.6151 23.0252C27.7809 23.0666 27.955 23.0915 28.1042 23.1661C28.5269 23.365 28.7839 23.7049 28.6844 24.1774C28.5933 24.625 28.2866 24.9317 27.8058 24.9483C27.5157 24.9566 27.209 24.9234 26.9354 24.8488C25.7584 24.5007 24.9709 23.506 24.9046 22.2211C24.8631 21.3011 24.8963 20.381 24.8963 19.3863C23.197 19.3863 21.647 19.3034 20.1052 19.4194C19.1685 19.494 18.5054 20.1903 18.1738 21.069C17.9998 21.5332 17.9334 22.0554 17.9251 22.561C17.9003 25.0975 17.9086 27.6339 17.9251 30.1787C17.9251 30.4191 17.9832 30.6595 18.0329 31.0076C18.5468 31.0076 19.0027 31.0076 19.4586 31.0076C22.335 31.0076 25.2113 30.9993 28.0876 31.0242C28.7922 31.0242 29.2066 31.4469 29.1818 31.9857C29.1569 32.4748 28.7756 32.8229 28.1374 32.8727C27.7561 32.9058 27.3748 32.881 26.9935 32.881C24.0342 32.881 21.075 32.881 17.9169 32.881L17.9003 32.8478ZM18.0412 73.3733C18.2401 74.9483 18.9696 75.8021 20.271 75.9927C20.7683 76.0673 21.2822 76.059 21.7879 76.059C37.4295 76.059 53.071 76.059 68.7126 76.059C69.2183 76.059 69.7322 76.059 70.2295 75.9927C71.332 75.8269 72.078 75.1721 72.4096 74.1277C72.5588 73.6552 72.6002 73.133 72.6002 72.6273C72.6168 69.751 72.6085 66.8747 72.6002 64.0066C72.6002 63.7414 72.5754 63.4761 72.5505 63.0451C72.0863 63.4844 71.7796 63.7662 71.4812 64.0564C68.7624 66.7752 66.0104 69.4609 63.333 72.2294C62.015 73.5971 60.5147 74.2188 58.5999 74.2105C46.763 74.1691 34.9261 74.194 23.0893 74.1857C21.3817 74.1857 19.641 74.4012 18.0246 73.3733H18.0412ZM61.9155 70.9115C65.0654 67.745 68.1158 64.7444 71.2325 61.553C68.8701 61.553 66.7564 61.5365 64.6427 61.553C62.6367 61.5696 61.9238 62.2991 61.9155 64.3382C61.9072 66.4436 61.9155 68.5574 61.9155 70.9032V70.9115ZM29.1569 17.2725C29.1569 16.4851 29.4139 15.7225 28.7342 15.1339C28.4026 14.8521 27.524 14.8604 27.1841 15.1339C26.4712 15.7225 26.8194 16.4934 26.7448 17.2642H29.1569V17.2725ZM63.7557 17.2725C63.6894 16.4022 64.0624 15.5235 63.2004 15.1008C62.819 14.9184 62.1311 14.9267 61.7912 15.1588C61.0452 15.6479 61.3519 16.4768 61.3519 17.2725H63.764H63.7557Z" fill="#4804CB"/>
<path d="M25.9566 36.6441C26.6363 36.6441 27.3077 36.611 27.9792 36.6441C29.2308 36.7187 29.9437 37.3984 29.9768 38.6418C30.0183 40.0758 30.0266 41.5181 29.9768 42.9439C29.9354 44.1789 29.2142 44.8752 27.9543 44.9167C26.5617 44.9664 25.1691 44.9581 23.7766 44.9167C22.4669 44.8752 21.7457 44.1706 21.7043 42.8527C21.6546 41.4601 21.6546 40.0675 21.7043 38.675C21.754 37.357 22.4669 36.6939 23.8014 36.6358C24.5143 36.6027 25.2355 36.6358 25.9566 36.6358V36.6441ZM23.7351 38.6667V42.9107H27.9626V38.6667H23.7351Z" fill="#4804CB"/>
<path d="M64.6755 36.6527C65.3967 36.6527 66.1095 36.6195 66.8307 36.6527C68.016 36.7273 68.7372 37.3904 68.7869 38.5675C68.8532 40.0429 68.8449 41.5267 68.7869 43.0021C68.7372 44.1709 68.016 44.8838 66.8473 44.9335C65.3718 44.9915 63.888 44.9915 62.4126 44.9335C61.2438 44.8838 60.5641 44.1543 60.5227 42.9607C60.4729 41.5267 60.4729 40.0927 60.5227 38.6586C60.5641 37.4153 61.2687 36.7521 62.5286 36.661C62.6115 36.661 62.6944 36.661 62.7856 36.661C63.4156 36.661 64.0538 36.661 64.6838 36.661L64.6755 36.6527ZM62.5535 38.6669V42.9275H66.8058C66.8638 41.4521 66.897 40.0595 66.8058 38.6669H62.5535Z" fill="#4804CB"/>
<path d="M38.7796 44.9499C38.1496 44.9499 37.5113 44.9664 36.8814 44.9499C35.3976 44.9084 34.6765 44.237 34.6433 42.7947C34.6101 41.4436 34.6019 40.0924 34.6433 38.7413C34.6847 37.415 35.381 36.7022 36.699 36.669C38.0916 36.6276 39.4841 36.6276 40.8767 36.669C42.1947 36.7105 42.8827 37.4233 42.9241 38.7496C42.9656 40.1422 42.9656 41.5347 42.9241 42.9273C42.8827 44.1707 42.1698 44.8753 40.9347 44.9499C40.2219 44.9913 39.5007 44.9499 38.7796 44.9499ZM40.8933 42.9439V38.675H36.641C36.5747 40.1422 36.5498 41.543 36.641 42.9439H40.8933Z" fill="#4804CB"/>
<path d="M47.5677 40.7558C47.5677 40.0761 47.5428 39.4047 47.5677 38.7332C47.634 37.407 48.3054 36.7024 49.6234 36.661C51.016 36.6195 52.4085 36.6195 53.8011 36.661C55.1108 36.7024 55.8071 37.4153 55.8485 38.7415C55.89 40.1341 55.8983 41.5267 55.8485 42.9193C55.8071 44.1626 55.0942 44.8838 53.8591 44.9335C52.4251 44.9833 50.9828 44.9833 49.5571 44.9335C48.322 44.8838 47.6423 44.1543 47.576 42.911C47.5345 42.1981 47.576 41.477 47.576 40.7558H47.5677ZM49.5737 42.911H53.8343V38.7415C52.3174 38.5177 50.4357 38.5509 49.5737 38.8244V42.911Z" fill="#4804CB"/>
<path d="M25.8903 60.2185C26.6114 60.2185 27.3243 60.1937 28.0455 60.2185C29.2225 60.2766 29.9437 60.948 29.9851 62.125C30.0348 63.6005 30.0348 65.0843 29.9851 66.5514C29.9437 67.6705 29.2805 68.3833 28.1532 68.4331C26.6363 68.5077 25.1111 68.5077 23.5942 68.4331C22.4586 68.3833 21.7706 67.7119 21.7209 66.5929C21.6545 65.076 21.6463 63.5508 21.7209 62.0339C21.7789 60.8568 22.5166 60.2434 23.7268 60.202C24.4397 60.1771 25.1608 60.202 25.882 60.202L25.8903 60.2185ZM27.9957 62.2328H23.7185V66.4685H27.9957V62.2328Z" fill="#4804CB"/>
<path d="M38.8056 60.2183C39.5268 60.2183 40.2396 60.1935 40.9608 60.2183C42.1461 60.2764 42.8673 60.9312 42.917 62.1083C42.9751 63.5837 42.9751 65.0675 42.917 66.5429C42.8756 67.7117 42.1793 68.408 40.9774 68.4577C39.5019 68.5157 38.0182 68.5157 36.551 68.4577C35.3574 68.3997 34.6942 67.7034 34.6528 66.5015C34.603 65.0675 34.5947 63.6335 34.6528 62.1994C34.7025 60.8898 35.432 60.2598 36.7831 60.2183C37.4545 60.2017 38.1342 60.2183 38.8056 60.2183ZM36.6256 62.216C36.5676 63.6915 36.5841 65.0923 36.609 66.4766H40.9028V62.216H36.6256Z" fill="#4804CB"/>
<path d="M64.6605 56.9606C63.9393 56.9606 63.2265 56.9855 62.5053 56.9606C61.3034 56.9192 60.574 56.2892 60.5242 55.1122C60.4662 53.5953 60.4579 52.0701 60.5242 50.5614C60.574 49.459 61.3034 48.7958 62.4224 48.771C63.8979 48.7295 65.3734 48.7378 66.8488 48.771C67.9844 48.7958 68.7056 49.4258 68.7636 50.5449C68.8382 52.0618 68.8382 53.587 68.7636 55.0956C68.7139 56.2809 67.9927 56.9109 66.7908 56.9606C66.0779 56.9855 65.3568 56.9606 64.6356 56.9606H64.6605ZM62.5385 50.6858V55.0293H66.7742V50.6195C65.6635 50.6195 64.619 50.6195 63.5746 50.6195C63.2513 50.6195 62.9198 50.6609 62.5302 50.6858H62.5385Z" fill="#4804CB"/>
<path d="M38.7231 56.6788C38.0019 56.6788 37.2891 56.7037 36.5679 56.6788C35.4489 56.6291 34.7111 55.9991 34.6614 54.8801C34.5868 53.3218 34.5868 51.7551 34.6697 50.1968C34.7277 49.1357 35.424 48.5141 36.5016 48.4809C38.0185 48.4312 39.5437 48.4312 41.0606 48.4809C42.1299 48.5141 42.8428 49.1606 42.9008 50.1968C42.9754 51.7551 42.9754 53.3218 42.9091 54.8801C42.8593 55.9826 42.1133 56.6291 41.0026 56.6706C40.2483 56.7037 39.4857 56.6706 38.7231 56.6706V56.6788ZM36.6591 50.404V54.7972C38.118 54.7889 39.5188 54.8801 40.9114 54.7309V50.404H36.6591Z" fill="#4804CB"/>
<path d="M51.6539 56.6791C50.9327 56.6791 50.2199 56.704 49.4987 56.6791C48.3797 56.6294 47.6503 55.9911 47.6005 54.8804C47.5342 53.3635 47.5342 51.8383 47.6005 50.3296C47.642 49.194 48.33 48.5309 49.4573 48.4894C50.9742 48.4397 52.4994 48.4397 54.0163 48.4894C55.1353 48.5309 55.815 49.2023 55.8648 50.3379C55.9228 51.8134 55.9228 53.2889 55.8648 54.7643C55.815 56.0077 55.0856 56.6459 53.8174 56.6791C53.1045 56.704 52.3833 56.6791 51.6622 56.6791H51.6539ZM49.5816 54.7146H53.9168C53.9002 53.2225 53.9666 51.8134 53.8837 50.4208H49.5816V54.7146Z" fill="#4804CB"/>
<path d="M25.7749 56.6788C25.1034 56.6788 24.4237 56.6954 23.7523 56.6788C22.4841 56.6374 21.7712 56.0074 21.7215 54.7392C21.6635 53.2637 21.6552 51.7883 21.7215 50.3128C21.7712 49.1689 22.4509 48.5141 23.5865 48.4809C25.1034 48.4312 26.6286 48.4312 28.1373 48.4809C29.248 48.5224 29.936 49.2103 29.9775 50.3377C30.0355 51.8131 30.0355 53.2886 29.9775 54.7641C29.936 55.9909 29.19 56.6374 27.9217 56.6788C27.2089 56.6954 26.4877 56.6788 25.7666 56.6788H25.7749ZM23.7192 54.7309H27.9632V50.404H23.7192V54.7309Z" fill="#4804CB"/>
<path d="M53.8661 66.5598V62.2163C52.4652 62.0671 51.0975 62.1583 49.6221 62.1583C49.5806 62.6142 49.5641 63.0203 49.4977 63.4182C49.4066 63.9156 49.1413 64.2803 48.5776 64.2969C48.014 64.3134 47.6658 63.9819 47.6161 63.4845C47.5581 62.8628 47.5581 62.208 47.6907 61.6029C47.8731 60.7491 48.5113 60.2601 49.4397 60.2352C50.9566 60.1937 52.4818 60.1855 53.9987 60.2352C55.0514 60.2683 55.7809 60.9149 55.8306 61.9759C55.9135 63.5343 55.9052 65.1009 55.8389 66.6593C55.7975 67.7203 55.1178 68.4 54.0568 68.4497C52.4984 68.5243 50.9318 68.516 49.3734 68.4497C48.4202 68.4083 47.7487 67.7368 47.6161 66.9079C47.5415 66.4437 47.6741 66.0624 48.0886 65.8221C48.503 65.5817 49.0004 65.6065 49.2159 66.0044C49.564 66.6427 50.078 66.5681 50.6251 66.5681C51.6695 66.5681 52.7222 66.5681 53.8744 66.5681L53.8661 66.5598Z" fill="#4804CB"/>
</svg>
