<?xml version="1.0" encoding="UTF-8"?>
<svg id="Calque_1" data-name="Calque 1" xmlns="http://www.w3.org/2000/svg" xmlns:xlink="http://www.w3.org/1999/xlink" viewBox="0 0 421.13 125.64">
  <defs>
    <style>
      .cls-1 {
        fill: #f3f0fc;
      }

      .cls-2 {
        fill: #fff;
      }

      .cls-3 {
        fill: url(#Dégradé_sans_nom_205-2);
      }

      .cls-4 {
        fill: url(#Dégradé_sans_nom_205-3);
      }

      .cls-5 {
        fill: url(#Dégradé_sans_nom_19);
      }

      .cls-6 {
        fill: url(#Dégradé_sans_nom_650);
      }

      .cls-7 {
        fill: url(#Dégradé_sans_nom_205);
      }

      .cls-8 {
        fill: url(#Dégradé_sans_nom_245);
      }
    </style>
    <linearGradient id="Dégradé_sans_nom_650" data-name="Dégradé sans nom 650" x1="0" y1="52.35" x2="102.34" y2="52.35" gradientUnits="userSpaceOnUse">
      <stop offset="0" stop-color="#2bdc8f"/>
      <stop offset=".23" stop-color="#22be8c"/>
      <stop offset=".74" stop-color="#0c7386"/>
      <stop offset="1" stop-color="#014a83"/>
    </linearGradient>
    <linearGradient id="Dégradé_sans_nom_245" data-name="Dégradé sans nom 245" x1="53.96" y1="76.68" x2="109.72" y2="76.68" gradientUnits="userSpaceOnUse">
      <stop offset="0" stop-color="#3c01d3"/>
      <stop offset=".09" stop-color="#4804cb"/>
      <stop offset="1" stop-color="#bf2780"/>
    </linearGradient>
    <linearGradient id="Dégradé_sans_nom_205" data-name="Dégradé sans nom 205" x1="58.88" y1="119.78" x2="58.94" y2="119.78" gradientUnits="userSpaceOnUse">
      <stop offset="0" stop-color="#fccf36"/>
      <stop offset=".3" stop-color="#fcb127"/>
      <stop offset=".94" stop-color="#fc6603"/>
      <stop offset="1" stop-color="#fc5f00"/>
    </linearGradient>
    <linearGradient id="Dégradé_sans_nom_205-2" data-name="Dégradé sans nom 205" x1="58.63" y1="125.01" x2="59.33" y2="125.01" xlink:href="#Dégradé_sans_nom_205"/>
    <linearGradient id="Dégradé_sans_nom_205-3" data-name="Dégradé sans nom 205" x1="55.75" y1="106.42" x2="90.88" y2="106.42" xlink:href="#Dégradé_sans_nom_205"/>
    <linearGradient id="Dégradé_sans_nom_19" data-name="Dégradé sans nom 19" x1="16.22" y1="98.77" x2="52.27" y2="98.77" gradientUnits="userSpaceOnUse">
      <stop offset="0" stop-color="#63ccd6"/>
      <stop offset=".23" stop-color="#489fbe"/>
      <stop offset=".6" stop-color="#225e9d"/>
      <stop offset=".86" stop-color="#0a3588"/>
      <stop offset="1" stop-color="#012680"/>
    </linearGradient>
  </defs>
  <g>
    <path class="cls-1" d="M125.65,62.82c0,.72-.02,1.42-.04,2.12-.09,2.95-.4,5.86-.89,8.69-.43,2.46-1,4.87-1.7,7.23-.89,2.98-2,5.87-3.31,8.63-1.04,2.25-2.21,4.4-3.53,6.48-1.76,2.85-3.76,5.55-5.97,8.08-1.59,1.85-3.31,3.59-5.12,5.23-.11,.11-.23,.21-.34,.32-2.76,2.47-5.72,4.7-8.88,6.65-.59,.38-1.17,.74-1.78,1.08-1.51,.87-3.04,1.66-4.63,2.42-4.67,2.15-9.63,3.8-14.85,4.78-.11,.02-.21,.04-.32,.06-.51,.11-1.04,.19-1.55,.28-2.1,.32-4.23,.55-6.4,.68l-1.36,.06c-.36,.02-.74,.02-1.1,.02-.36,.02-.72,.02-1.08,.02h-.57c-7.16-.06-14.03-1.32-20.44-3.61-1.21-.42-2.4-.87-3.55-1.38-.26-.09-.51-.21-.76-.32-.15-.08-.32-.13-.47-.23-2.57-1.13-5.04-2.47-7.4-3.95-.57-.36-1.11-.72-1.68-1.08-.94-.64-1.87-1.3-2.8-2,0-.02-.02-.02-.02-.02h-.02c-.06-.04-.13-.08-.19-.13-.45-.34-.93-.7-1.36-1.08-.51-.4-1.02-.81-1.51-1.25-.49-.42-.98-.83-1.45-1.28-.32-.26-.62-.57-.93-.87-.47-.42-.93-.85-1.34-1.3-.25-.21-.45-.43-.64-.64-.26-.26-.53-.53-.77-.79-.17-.17-.32-.36-.47-.53-.17-.17-.34-.36-.47-.53-.42-.45-.81-.89-1.19-1.36-.15-.15-.28-.3-.4-.47-.38-.45-.76-.91-1.1-1.36-.13-.17-.26-.32-.38-.49-.36-.45-.72-.93-1.04-1.42-.15-.17-.28-.36-.42-.55-.34-.47-.68-.96-.98-1.45-.17-.25-.34-.47-.47-.72-.32-.49-.64-.98-.91-1.47-.23-.32-.42-.64-.6-.98-.3-.51-.59-1.02-.87-1.55-.26-.45-.51-.94-.76-1.42-.28-.53-.55-1.06-.77-1.61-.4-.77-.74-1.55-1.06-2.34-.25-.53-.47-1.06-.66-1.59-.57-1.42-1.08-2.85-1.53-4.33-.15-.47-.3-.96-.43-1.45-1.11-3.87-1.87-7.9-2.19-12.05-.15-1.72-.23-3.48-.23-5.23C0,54.7,1.56,46.94,4.37,39.82c1.95-4.97,4.51-9.61,7.59-13.86,.4-.55,.79-1.08,1.21-1.59,.7-.93,1.44-1.81,2.19-2.7,0,0,.02-.02,.04-.04,.94-1.08,1.91-2.12,2.91-3.12,2.81-2.83,5.89-5.4,9.22-7.65,2.08-1.42,4.25-2.72,6.52-3.87,3-1.57,6.16-2.89,9.43-3.93,2.38-.79,4.82-1.42,7.31-1.91,3.02-.59,6.1-.94,9.25-1.1,.93-.04,1.87-.06,2.8-.06,1.59,0,3.17,.06,4.74,.17,2.97,.23,5.89,.66,8.73,1.28,1.61,.34,3.19,.76,4.74,1.23,.85,.26,1.7,.53,2.53,.83,2.7,.93,5.31,2.04,7.82,3.32,1.06,.55,2.08,1.11,3.1,1.7,1.17,.68,2.3,1.4,3.42,2.15,2.32,1.57,4.51,3.27,6.59,5.12,1.89,1.66,3.66,3.46,5.35,5.35,1.83,2.06,3.53,4.25,5.08,6.54,1.4,2.08,2.68,4.23,3.83,6.5,1.27,2.46,2.36,5.01,3.29,7.65,.85,2.34,1.55,4.76,2.08,7.23,.62,2.72,1.06,5.52,1.28,8.37,.17,1.78,.25,3.57,.25,5.38Z"/>
    <path class="cls-6" d="M102.33,55.35c-.11,3.97-2.72,5.52-2.72,5.52,0,0-.42,4.38-4.87,4.48,0,0-2.08,1.78-5.1,1.23,.04-.09,.06-.21,.08-.32,.15-.6,.28-1.21,.38-1.74,.13-.64,.17-1.45,.19-2.23,1.38-.32,3.66-1.55,4.46-3.14,.53-1.06,.43-2.19-.26-3.1-.42-.55-.49-1.59-.59-2.7-.06-.87-.15-1.87-.4-2.8-.53-2.12-1.98-2.78-2.76-3.12-.17-.08-.43-.19-.47-.25-.68-1.17-1.59-1.68-2.3-2.1-.47-.28-.87-.51-1.27-.94-1.4-1.47-3.34-2.98-5.8-4.53-1.89-1.19-3.19-1.28-4.23-1.36-.32-.02-.66-.04-1-.11l-.23-.04c-.66-.17-1.32-.25-1.98-.25-1.38,0-2.46,.36-3.12,.6-.15,.06-.36,.09-.6,.09-.42,0-.96-.08-1.64-.25-.62-.17-2.89-1.61-4.7-2.87-.55-.59-2.02-2-3.7-2.19-.08-.02-.34-.04-.42-.04-1.93,0-3.1,1.64-3.57,2.46-.42,.4-1.17,1.15-1.81,2.17-.76,1.13-1.02,2.46-1.11,3.27-.81,1.19-.77,2.47-.6,3.99,.17,1.72,2.23,4.95,3.44,6.72,.13,.17,.25,.34,.38,.51v.02c-1.74,2.32-4.31,5.52-6.88,8.67-4.59,5.69-9.22,11.16-9.22,11.16,0,0-.94,2.91-2.66,5.7-.3-.4-.6-.77-.94-1.13-.59-.66-1.27-1.19-1.87-1.64-.25-.19-.51-.4-.7-.57-.4-.34-.85-.57-1.19-.74-.42-.17-.83-.26-1.25-.26-1.13,0-2.4,.79-2.47,2.44-.06,.53-.06,1.06-.04,1.59l.02,.19c0,.23,.02,.43,.08,.87,.06,.28,.11,.59,.13,.89,.02,.09,.04,.17,.06,.25,.21,.87,.38,1.74,.57,2.61,.53,2.61,1.1,5.29,2.34,7.84,.04,.06,.06,.11,.09,.17,.13,.28,.28,.55,.43,.83-.76,1.1-1.57,2.27-2.36,3.4-.55,.02-1.1,.08-1.64,.15-3.23,.38-6.25,1.42-8.95,3.12-1.72,1.08-3.04,2.49-4.1,4.36-.21,.38-.38,.76-.57,1.13C5.59,92.43,0,78.27,0,62.82c0-11.75,3.23-22.76,8.86-32.17,.08,.04,.13,.06,.13,.06,.43-1.36,1.87-1.02,1.87-1.02,.34-1.27,1.51-1.95,2.63-2.29-1-.08-1.55-.53-1.72-.68-.02-.02-.06-.06-.06-.06,.04,0,.06,0,.09,.02,.51,.26,2.85,1.17,5.1-1.85,2.36-3.23,5.46-1.91,5.86-1.72-1.89-.91-1.28-2.63-1.28-2.63,.51,2.04,2.36,2.12,2.64,2.12-1.59-.36-1.3-1.85-1.3-1.85,.43,1.49,3.1,1.25,3.83-1,.74-2.29,3.85-1.81,3.85-1.81-2.98-1.28-4.7,1-4.7,1,1.66-3.51,5.5-1.74,5.5-1.74,.15-2.59,2.47-4.04,4.89-2.57,2.4,1.47,4.12,.87,4.12,.87-1.89-.11-2.49-1.66-2.55-1.87,1.19,1.49,3.36,1.55,5.36-1.15,2-2.7,5.06-1.04,5.06-1.04-1.45-2-4.53-1.27-4.97-1.15,3.74-1.64,6.42,.7,6.42,.7,.79-1.51,1.62-1.91,1.83-1.96-.68,.51-1.08,2.1-1.08,2.1,3.12-4.08,7.33-1.45,7.33-1.45-1.61-2.25-4.93-1.76-5.63-1.62,5.4-2.15,9.33,1.61,9.33,1.61,0,0,3.49-3.46,8.56,.47l1.25-.59,2.15-1s4.08-3.85,7.52-5.89c1.02-.6,1.98-1.06,2.78-1.19,3.48-.6,2,1.25,2,1.25l-.62,1.34-.85,1.87-.76,8.58s-.04,.13-.06,.36c-.11,.87-.09,3.19,2.38,5.55,3.12,3,3.82,4.65,4.8,8.48,.94,3.83,8.9,19.91,8.9,19.91,0,0,3,2.61,2.87,6.57Z"/>
    <path class="cls-8" d="M109.72,104.61c-1.57,1.76-3.21,3.42-4.97,4.99-3.27,2.93-6.84,5.52-10.65,7.73-.57,.32-1.13,.64-1.7,.93-.02-.23-.09-.43-.21-.62-.15-.3-.34-.6-.51-.89l-.19-.3c-2.23-3.65-5.27-6.25-9.03-7.76-1.51-.6-3.06-1.08-4.55-1.53-.6-.19-1.23-.4-1.85-.59-1.19-.4-2.46-.81-3.63-1.32-.43-.19-.96-.53-1.27-1.61,.94-1.89,1.38-4.04,1.36-6.71,0-.26,.08-.51,.23-.79,.87-1.55,1.36-3.31,1.51-5.4,.04-.79-.06-1.55-.15-2.23l-.04-.25c-.21-1.27-1.17-2.1-2.36-2.1-.28,0-.55,.04-.79,.11-.59,.17-1.17,.42-1.66,.68-1.13,.59-2.19,1.34-3.19,2.3-.93-.42-1.93-.62-2.97-.62-.47,0-.96,.04-1.45,.13-.77-1.02-1.7-1.89-2.76-2.59l-.11-.06c.62-.91,1.19-1.44,1.19-1.44,0,0,0-1.62,.7-3.36,.68-1.74,1.61-3.53,1.61-3.53l-.74,.06,.13-5.48,.93-.38s-.42-.6,.55-2.74c.98-2.15,1.79-6.03,.83-9.14-.64-2.1-1.57-3.4-2.66-4.53-.53-.59-1.1-1.1-1.66-1.68-.64-.64-1.57-1.83-2.47-3.15-1.51-2.21-3.02-4.8-3.14-5.86-.17-1.68-.09-2.36,.57-3.06,0,0,.04-1.72,.85-2.95,.79-1.23,1.76-2.02,1.76-2.02,0,0,.91-1.91,2.23-1.74,1.3,.15,2.68,1.74,2.68,1.74,0,0,4.19,2.97,5.52,3.29,1.34,.32,2.46,.43,3.36,.09,.93-.36,2.27-.74,3.99-.3,.11,.02,.21,.04,.3,.06,1.57,.3,2.51-.09,4.61,1.23,2.23,1.4,4.12,2.85,5.42,4.23,1.28,1.38,2.53,1.34,3.31,2.68,.79,1.36,2.51,.76,3.04,2.87,.57,2.12,.11,4.61,1.3,6.18,1.19,1.57-2.89,3.44-3.38,3.29-.47-.17-1.27-.72-1.27-.72,0,0,.21,2.87-.08,4.42-.09,.49-.23,1.08-.36,1.64-.26,1.21-.47,2.42-.09,2.87,.55,.68,2.47,2-1.19,4.93l-.79,4.36s2.1,.7,2.78,3.27c.68,2.59,3.46,3.8,8.78,11.14,4.27,5.89,8.39,7.06,12.35,12.22Z"/>
    <g>
      <polygon class="cls-7" points="58.9 119.82 58.94 119.75 58.88 119.8 58.9 119.82"/>
      <path class="cls-3" d="M59.33,125.54c-.23,0-.45-.02-.68-.06,0-.23-.02-.47-.02-.7v-.3c.23,.36,.45,.72,.7,1.06Z"/>
      <path class="cls-4" d="M90.88,119.06c-.21-.38-.77-1.27-.99-1.64-1.96-3.19-4.61-5.57-8.12-6.99-2.06-.81-4.19-1.4-6.29-2.08-1.27-.42-2.55-.85-3.78-1.38-1.38-.59-2.1-1.74-2.44-3.15-.06-.25-.06-.55,.06-.74,1.06-1.93,1.34-4,1.32-6.16,0-.62,.17-1.17,.47-1.72,.79-1.42,1.15-2.98,1.27-4.59,.04-.68-.08-1.38-.17-2.06-.08-.45-.34-.6-.76-.47-.45,.13-.91,.32-1.32,.55-1.21,.62-2.25,1.44-3.19,2.42-.28,.28-.57,.51-1.02,.25-1.28-.77-2.68-.93-4.14-.64-.68,.13-1.15-.08-1.55-.64-.66-.89-1.45-1.64-2.38-2.25-.06-.04-.11-.08-.17-.11-.26-.17-.53-.3-.81-.42-.28-.11-.51,.02-.64,.28-.09,.19-.17,.4-.21,.6-.43,2.08-.3,4.14,.3,6.16,.17,.57,.19,1.06,0,1.62-.21,.66-.4,1.34-.47,2.02-.25,1.91-.15,3.74,1.57,5.06,.23,.19,.26,.42,.19,.68l-.34,1.13c-.66,2.3-.94,4.65-.96,7.05-.04,1.83,.21,3.63,.62,5.4,.04,.19,.08,.36,.13,.55,.3,1.28,.62,2.59,1.1,3.82,.04,.08,.06,.15,.09,.23,.57,1.38,1.27,2.63,2.15,3.74,.6,.04,1.23,.06,1.85,.06h.57c.36,0,.72,0,1.08-.02,.36,0,.74,0,1.1-.02,.81-.04,1.62-.08,2.44-.13,1.79-.13,3.59-.34,5.33-.6,.62-.11,1.25-.21,1.87-.34,2.36-.45,4.43-.89,6.98-1.73,0,0,6.75-2.27,9.28-3.72Z"/>
    </g>
    <path class="cls-5" d="M52.23,77.17c-.36,2.91-.7,5.78-1.1,8.65-.28,2.19-1.1,4.1-2.85,5.5-.47,.4-.62,.87-.49,1.4,.19,.83,.36,1.68,.7,2.44,.6,1.4,1.44,2.72,2,4.14,.89,2.27,.83,4.46-1.04,6.31-.13,.09-.28,.19-.32,.34-.11,.21-.23,.47-.23,.72-.02,.32,.09,.62,.13,.94,.42,2.68-.43,5.02-2.19,7.03-.6,.68-1.28,1.27-1.87,1.93-.62,.72-1.27,1.45-1.74,2.27-.74,1.34-.89,2.46-.49,3.51-.3-.09-.62-.19-.93-.3-1.47-.51-2.91-1.08-4.31-1.7-4.42-1.95-12.37-7.27-12.37-7.27h-.02c-.06-.04-.13-.08-.19-.13-1.19-.91-2.34-1.85-3.46-2.83-1.59-1.38-3.1-2.85-4.55-4.38-.25-.26-.47-.51-.7-.77,.26-.6,.55-1.21,.87-1.79,.85-1.51,1.96-2.74,3.44-3.66,2.53-1.59,5.27-2.51,8.18-2.85,.51-.06,1.04-.11,1.57-.13,1.55-.09,3.06,.13,4.55,.59,.85,.23,1.02,.11,1.06-.79,.02-.62-.11-1.27-.04-1.89,.08-.74-.17-1.32-.55-1.93-.57-1-1.1-2-1.61-3.04-.02-.02-.02-.04-.04-.06-1.55-3.15-1.96-6.67-2.78-10.05-.04-.38-.09-.74-.17-1.1-.02-.17-.04-.32-.04-.47-.02-.53-.06-1.06,0-1.57,.04-.7,.45-.93,1.1-.64,.25,.11,.49,.25,.68,.42,.81,.68,1.74,1.27,2.42,2.04,.43,.49,.85,1,1.27,1.51,.96,1.17,1.89,2.36,2.8,3.57,1.02,1.36,1.72,2.91,2.04,4.61,.13,.66,.15,1.36,.26,2.02v.02c.04,.19,.17,.34,.25,.51,.13-.15,.34-.26,.36-.42,.11-.49,.19-.98,.28-1.47,.08-.38,.15-.79,.21-1.19,.32-1.76,.93-3.32,1.96-4.74,.25-.36,.53-.7,.85-1.04,1.66-1.76,3.27-3.59,4.91-5.4,.19-.21,.45-.43,.72-.6,.45-.3,.91-.19,1.21,.28,.32,.45,.32,.98,.25,1.51Z"/>
  </g>
  <g>
    <path class="cls-2" d="M150.43,84.13c-.79,0-1.4-.23-1.81-.68-.42-.45-.62-1.08-.62-1.87V44.31c0-.83,.22-1.46,.65-1.87,.44-.42,1.05-.62,1.84-.62h14.09c4.48,0,7.92,1.1,10.34,3.3,2.42,2.2,3.63,5.3,3.63,9.3s-1.21,7.05-3.63,9.27c-2.42,2.22-5.87,3.33-10.34,3.33h-11.71v14.56c0,.79-.2,1.42-.59,1.87-.4,.45-1.01,.68-1.84,.68Zm2.44-21.22h11.12c3.21,0,5.64-.72,7.28-2.17,1.64-1.45,2.47-3.56,2.47-6.33s-.82-4.94-2.47-6.39c-1.64-1.45-4.07-2.17-7.28-2.17h-11.12v17.06Z"/>
    <path class="cls-2" d="M191.8,84.25c-1.98,0-3.76-.39-5.32-1.16-1.57-.77-2.8-1.83-3.71-3.18-.91-1.35-1.37-2.85-1.37-4.52,0-2.14,.54-3.82,1.63-5.05,1.09-1.23,2.89-2.1,5.41-2.62,2.52-.51,5.95-.77,10.31-.77h2.67v3.15h-2.62c-3.21,0-5.74,.15-7.58,.45-1.84,.3-3.13,.8-3.86,1.52s-1.1,1.72-1.1,3.03c0,1.63,.56,2.95,1.69,3.98,1.13,1.03,2.66,1.55,4.61,1.55,1.58,0,2.98-.38,4.19-1.13,1.21-.75,2.16-1.78,2.85-3.09,.69-1.31,1.04-2.81,1.04-4.52v-6.78c0-2.46-.5-4.23-1.49-5.32-.99-1.09-2.62-1.63-4.87-1.63-1.39,0-2.77,.18-4.16,.53-1.39,.36-2.85,.93-4.4,1.72-.56,.28-1.03,.37-1.43,.27-.4-.1-.71-.31-.95-.62-.24-.32-.38-.68-.42-1.1-.04-.42,.05-.82,.27-1.22,.22-.4,.56-.71,1.04-.95,1.74-.87,3.47-1.51,5.17-1.9,1.7-.4,3.33-.59,4.87-.59,2.5,0,4.56,.41,6.18,1.22,1.62,.81,2.83,2.04,3.63,3.69,.79,1.64,1.19,3.75,1.19,6.33v16.11c0,.79-.19,1.41-.56,1.84-.38,.44-.92,.65-1.63,.65-.75,0-1.33-.22-1.72-.65-.4-.44-.59-1.05-.59-1.84v-4.64h.53c-.32,1.51-.92,2.79-1.81,3.86s-1.99,1.9-3.3,2.5c-1.31,.59-2.77,.89-4.4,.89Z"/>
    <path class="cls-2" d="M223.07,84.13c-.67,0-1.27-.18-1.78-.53-.52-.36-.93-.93-1.25-1.72l-8.86-24.07c-.24-.67-.31-1.27-.21-1.78,.1-.51,.35-.91,.74-1.19,.4-.28,.89-.42,1.49-.42s1.08,.14,1.46,.42c.38,.28,.68,.79,.92,1.55l8.32,23.78h-1.43l8.56-23.78c.28-.71,.62-1.22,1.04-1.52,.42-.3,.96-.45,1.63-.45,.63,0,1.17,.16,1.6,.48,.44,.32,.77,.81,1.01,1.49l8.38,23.78h-1.37l8.44-23.9c.28-.71,.61-1.2,1.01-1.46,.4-.26,.87-.39,1.43-.39,.63,0,1.12,.16,1.46,.48,.34,.32,.52,.73,.57,1.25,.04,.52-.06,1.07-.3,1.66l-8.86,24.07c-.28,.75-.68,1.32-1.22,1.69-.53,.38-1.14,.57-1.81,.57s-1.27-.19-1.78-.57c-.52-.38-.91-.94-1.19-1.69l-8.8-24.13h2.56l-8.74,24.13c-.28,.75-.67,1.32-1.19,1.69-.52,.38-1.13,.57-1.84,.57Z"/>
    <path class="cls-2" d="M276.92,84.31c-1.78,0-3.15-.5-4.1-1.49-.95-.99-1.43-2.36-1.43-4.1v-28h-9.33c-1.47,0-2.59-.4-3.36-1.19-.77-.79-1.16-1.9-1.16-3.33s.39-2.52,1.16-3.27c.77-.75,1.89-1.13,3.36-1.13h29.6c1.51,0,2.64,.38,3.39,1.13,.75,.75,1.13,1.84,1.13,3.27s-.38,2.59-1.13,3.36c-.75,.77-1.88,1.16-3.39,1.16h-9.33v28c0,1.74-.46,3.11-1.37,4.1-.91,.99-2.26,1.49-4.04,1.49Z"/>
    <path class="cls-2" d="M306.64,84.31c-1.74,0-3.06-.47-3.95-1.4s-1.34-2.25-1.34-3.95V46.56c0-1.7,.45-3.02,1.34-3.95,.89-.93,2.21-1.4,3.95-1.4s2.96,.47,3.89,1.4c.93,.93,1.4,2.25,1.4,3.95v13.02h-.95c.95-1.86,2.31-3.3,4.07-4.31,1.76-1.01,3.77-1.52,6.03-1.52s4.26,.47,5.77,1.4c1.51,.93,2.63,2.32,3.39,4.16,.75,1.84,1.13,4.21,1.13,7.1v12.54c0,1.7-.46,3.02-1.37,3.95-.91,.93-2.22,1.4-3.92,1.4s-3.01-.47-3.92-1.4-1.37-2.25-1.37-3.95v-12.13c0-1.74-.31-3-.92-3.77-.62-.77-1.52-1.16-2.7-1.16-1.59,0-2.85,.5-3.8,1.52-.95,1.01-1.43,2.37-1.43,4.07v11.47c0,3.57-1.76,5.35-5.29,5.35Z"/>
    <path class="cls-2" d="M352.47,84.43c-3.57,0-6.65-.63-9.24-1.9-2.6-1.27-4.59-3.05-5.97-5.35-1.39-2.3-2.08-4.99-2.08-8.08s.66-5.67,1.99-7.97c1.33-2.3,3.15-4.1,5.47-5.41,2.32-1.31,4.96-1.96,7.94-1.96,2.18,0,4.16,.36,5.94,1.07s3.3,1.73,4.55,3.06c1.25,1.33,2.21,2.92,2.88,4.78,.67,1.86,1.01,3.96,1.01,6.3,0,.75-.22,1.33-.65,1.72-.44,.4-1.11,.59-2.02,.59h-18.25v-5.05h13.14l-.89,.77c0-1.47-.2-2.66-.59-3.6-.4-.93-.98-1.62-1.75-2.08-.77-.45-1.73-.68-2.88-.68-1.23,0-2.3,.29-3.21,.86-.91,.58-1.6,1.42-2.05,2.53-.46,1.11-.68,2.5-.68,4.16v.48c0,2.85,.62,4.87,1.87,6.06s3.18,1.78,5.8,1.78c.87,0,1.87-.1,3-.3,1.13-.2,2.21-.49,3.24-.89,1.03-.4,1.92-.47,2.67-.21,.75,.26,1.34,.68,1.75,1.28,.42,.59,.65,1.3,.71,2.11,.06,.81-.12,1.58-.53,2.29-.42,.71-1.1,1.27-2.05,1.66-1.35,.63-2.8,1.12-4.37,1.46-1.57,.34-3.14,.51-4.73,.51Z"/>
    <path class="cls-2" d="M374.11,84.31c-1.74,0-3.08-.47-4.01-1.4-.93-.93-1.4-2.25-1.4-3.95v-19.73c0-1.7,.45-3.02,1.34-3.95,.89-.93,2.17-1.4,3.83-1.4s2.88,.47,3.77,1.4c.89,.93,1.34,2.25,1.34,3.95v2.44h-.59c.4-2.38,1.42-4.27,3.06-5.68,1.64-1.41,3.69-2.15,6.15-2.23,1.15-.04,2.01,.26,2.59,.89,.57,.63,.88,1.78,.92,3.45,0,1.43-.3,2.55-.89,3.36-.59,.81-1.7,1.32-3.33,1.52l-1.43,.12c-2.06,.2-3.59,.78-4.58,1.75-.99,.97-1.49,2.41-1.49,4.31v9.81c0,1.7-.45,3.02-1.34,3.95s-2.21,1.4-3.95,1.4Z"/>
    <path class="cls-2" d="M403.53,84.43c-2.26,0-4.26-.43-6-1.28-1.74-.85-3.1-2-4.07-3.45-.97-1.45-1.46-3.1-1.46-4.96,0-2.14,.55-3.82,1.66-5.05,1.11-1.23,2.9-2.11,5.38-2.65,2.48-.53,5.76-.8,9.84-.8h3.27v4.93h-3.27c-1.55,0-2.81,.12-3.8,.36-.99,.24-1.72,.57-2.2,1.01-.48,.44-.71,1.03-.71,1.78,0,.91,.32,1.66,.95,2.26,.63,.59,1.58,.89,2.85,.89,.95,0,1.81-.22,2.59-.65,.77-.44,1.4-1.04,1.87-1.81,.48-.77,.71-1.67,.71-2.7v-6.9c0-1.47-.37-2.49-1.1-3.06-.73-.57-1.97-.86-3.71-.86-.99,0-2.07,.11-3.24,.33-1.17,.22-2.51,.6-4.01,1.16-1.07,.4-1.99,.46-2.76,.18-.77-.28-1.35-.74-1.72-1.4-.38-.65-.56-1.38-.56-2.17s.25-1.57,.74-2.32c.5-.75,1.26-1.31,2.29-1.66,1.9-.67,3.66-1.15,5.29-1.43,1.62-.28,3.09-.42,4.4-.42,3.25,0,5.93,.48,8.05,1.43,2.12,.95,3.71,2.39,4.76,4.31,1.05,1.92,1.58,4.39,1.58,7.4v12.07c0,1.7-.43,3.02-1.28,3.95-.85,.93-2.05,1.4-3.6,1.4-1.63,0-2.86-.47-3.72-1.4-.85-.93-1.28-2.25-1.28-3.95v-1.6l.36,.83c-.2,1.23-.65,2.31-1.37,3.24-.71,.93-1.64,1.66-2.79,2.2-1.15,.53-2.46,.8-3.92,.8Z"/>
  </g>
</svg>