<svg width="90" height="90" viewBox="0 0 90 90" fill="none" xmlns="http://www.w3.org/2000/svg">
<path d="M44.6317 24.9213C41.1044 25.0297 37.8105 25.897 34.7251 27.5814C34.3916 27.7649 34.0664 27.9817 33.7078 28.0984C33.0574 28.3236 32.4737 28.0901 32.1735 27.5397C31.8649 26.9894 31.9733 26.389 32.4987 25.9387C32.7238 25.7469 32.999 25.6135 33.2575 25.4634C47.2001 17.4581 65.1869 26.1221 67.6302 42.016C69.5815 54.716 61.176 66.4988 48.4842 68.5919C34.9586 70.8267 23.1425 61.1369 21.6415 48.6203C21.0494 43.642 21.95 38.9806 24.2766 34.561C24.4767 34.1858 24.6768 33.8022 24.9437 33.477C25.3856 32.935 25.9777 32.8349 26.5364 33.1601C27.0951 33.477 27.3119 34.0357 27.0868 34.6861C26.9784 35.003 26.7866 35.2949 26.6198 35.5867C19.7152 48.0866 27.0284 63.4885 41.0793 66.0318C52.637 68.1249 63.711 59.9778 65.1452 48.3201C66.4961 37.3629 59.3748 27.498 48.5343 25.3466C47.2501 25.0881 45.9242 25.0381 44.615 24.8963L44.6317 24.9213Z" fill="#4804CB"/>
<path d="M17.3719 63.7638C17.0883 63.2635 16.9382 62.9716 16.7631 62.6881C5.32223 43.6338 15.4372 19.2594 37.0098 13.9476C43.5558 12.3382 49.9934 12.8052 56.3059 15.1484C56.6228 15.2651 56.948 15.3819 57.2315 15.5653C57.8236 15.9322 58.007 16.5076 57.7652 17.0997C57.5234 17.7 57.0064 17.9919 56.3226 17.8668C55.989 17.8085 55.6805 17.6583 55.3553 17.5499C44.5982 13.7641 34.6333 15.2901 25.7107 22.3698C19.173 27.5566 15.6207 34.5111 14.7618 42.825C14.1531 48.6955 15.2705 54.2409 17.9055 59.5027C18.114 59.9113 18.3558 60.3115 18.7728 60.6951C18.7895 60.2698 18.7978 59.8446 18.8312 59.4193C18.8979 58.5854 19.3815 58.0684 20.0653 58.06C20.7074 58.0517 21.3161 58.5103 21.3411 59.2442C21.3995 61.1954 21.3995 63.1551 21.3411 65.1064C21.3245 65.8318 20.7908 66.2821 20.0653 66.2905C18.1974 66.3238 16.3212 66.3405 14.4533 66.2905C13.6194 66.2655 13.1274 65.7068 13.1274 65.0146C13.1274 64.2808 13.6611 63.7972 14.595 63.7638C15.4456 63.7305 16.2878 63.7638 17.3635 63.7638H17.3719Z" fill="#4804CB"/>
<path d="M70.7243 30.8501C70.7243 31.4338 70.766 31.8174 70.7243 32.1927C70.6326 32.9015 70.0905 33.4018 69.4651 33.4018C68.8314 33.4018 68.231 32.9098 68.2143 32.201C68.1726 30.2914 68.1726 28.3735 68.2143 26.4556C68.231 25.7468 68.7313 25.3048 69.4818 25.2881C71.308 25.2464 73.1426 25.2464 74.9688 25.2881C75.7693 25.3048 76.303 25.8718 76.3113 26.5473C76.3113 27.2227 75.786 27.7731 74.9855 27.8148C74.1015 27.8565 73.2093 27.8231 72.1752 27.8231C72.3837 28.2234 72.5088 28.5152 72.6756 28.7904C76.0862 34.4942 77.6956 40.6816 77.3453 47.311C76.5365 62.7629 65.4458 74.6624 51.6617 77.6394C45.4242 78.9819 39.3285 78.5316 33.3413 76.3469C32.9827 76.2134 32.6158 76.0883 32.2989 75.8882C31.7235 75.5213 31.5484 74.9042 31.8069 74.3372C32.0654 73.7785 32.6575 73.4616 33.2745 73.6034C33.5998 73.6784 33.9083 73.8452 34.2335 73.9536C44.3152 77.4142 53.8048 76.2301 62.4521 69.9843C69.7403 64.7225 73.7179 57.426 74.6269 48.4701C75.2106 42.6913 74.1182 37.221 71.5332 32.0342C71.3997 31.7674 71.258 31.5089 71.1079 31.2504C71.0662 31.1837 70.9995 31.1336 70.7326 30.8585L70.7243 30.8501Z" fill="#4804CB"/>
<path d="M48.5672 43.3837C49.3594 46.3773 48.8674 48.1285 47.0829 49.3209C45.5319 50.3466 43.5472 50.2882 42.0796 49.1625C40.4535 47.9283 40.0116 46.1188 40.8121 43.6338C39.728 42.5498 38.594 41.4157 37.4599 40.2816C37.1597 39.9814 36.8345 39.6979 36.576 39.3643C36.1173 38.7723 36.159 38.1135 36.6343 37.6382C37.1096 37.1712 37.7934 37.1129 38.3605 37.6048C39.0359 38.1886 39.653 38.839 40.2701 39.4728C41.0372 40.2566 41.7961 41.0655 42.5632 41.866C43.9808 41.2573 45.2984 41.1739 46.6743 41.8326C46.9745 41.5575 47.2914 41.2823 47.5832 40.9904C49.9598 38.6222 52.328 36.2456 54.7046 33.8774C54.9715 33.6105 55.2466 33.3354 55.5635 33.1269C56.0972 32.785 56.6392 32.8934 57.0645 33.3354C57.4981 33.7773 57.5982 34.311 57.2479 34.8447C57.0395 35.1616 56.7643 35.4367 56.4975 35.7036C54.1542 38.0468 51.8194 40.3984 49.4595 42.7249C49.1593 43.0251 48.7673 43.2252 48.5505 43.3837H48.5672ZM44.6313 43.934C43.6807 43.9674 42.8885 44.8179 42.9218 45.7686C42.9552 46.7192 43.8057 47.5197 44.7564 47.478C45.707 47.4447 46.4992 46.5941 46.4658 45.6435C46.4325 44.6929 45.5819 43.9007 44.6313 43.934Z" fill="#4804CB"/>
<path d="M27.962 46.9694C27.3199 47.0111 26.6778 46.836 26.4776 46.1355C26.3692 45.7603 26.4693 45.2016 26.6861 44.868C27.1447 44.1843 28.8209 44.1759 29.2962 44.843C29.5297 45.1766 29.6047 45.7103 29.538 46.1189C29.4379 46.6943 28.8375 46.9528 27.962 46.9611V46.9694Z" fill="#4804CB"/>
<path d="M46.0827 29.0326C45.9409 29.4162 45.8658 29.8998 45.6073 30.2417C45.1904 30.8087 44.3232 30.7921 43.8228 30.2917C43.2058 29.6747 43.2641 28.182 43.9229 27.6483C44.4983 27.1813 45.2821 27.2564 45.6907 27.8901C45.8825 28.1903 45.9326 28.5823 46.0827 29.0326Z" fill="#4804CB"/>
<path d="M61.4173 44.4346C62.3846 44.4429 63.0017 44.9182 63.035 45.6604C63.0767 46.4609 62.4263 46.9863 61.4006 46.9946C60.2832 46.9946 59.6495 46.4693 59.7412 45.5853C59.8162 44.8265 60.3999 44.4179 61.4173 44.4346Z" fill="#4804CB"/>
<path d="M45.9578 62.4295C45.9912 63.0716 45.8244 63.7137 45.1239 63.9138C44.7403 64.0222 44.19 63.9138 43.8648 63.697C43.181 63.23 43.1726 61.5539 43.8481 61.0953C44.1816 60.8702 44.7237 60.7951 45.1323 60.8618C45.6993 60.9619 45.9662 61.5623 45.9662 62.4379L45.9578 62.4295Z" fill="#4804CB"/>
<path d="M62.4686 19.0342C62.4353 19.7347 61.8182 20.26 61.101 20.2183C60.3922 20.1683 59.8335 19.5595 59.8752 18.8758C59.9086 18.192 60.5674 17.6083 61.2345 17.6666C61.9016 17.725 62.502 18.3921 62.4686 19.0342Z" fill="#4804CB"/>
<path d="M28.3869 71.2606C29.079 71.2856 29.6461 71.8693 29.6461 72.5698C29.6461 73.3036 29.0873 73.829 28.3619 73.8123C27.6614 73.7956 27.0777 73.2035 27.086 72.5198C27.086 71.836 27.7114 71.2439 28.3952 71.2606H28.3869Z" fill="#4804CB"/>
<path d="M29.1544 28.9408C29.8382 28.9574 30.4219 29.5745 30.3885 30.2666C30.3552 30.9838 29.7714 31.4924 29.0376 31.4507C28.3705 31.4091 27.8535 30.867 27.8535 30.2166C27.8535 29.5412 28.4706 28.9241 29.1544 28.9408Z" fill="#4804CB"/>
</svg>
